<?xml version="1.0" standalone="no"?>
<!DOCTYPE svg PUBLIC "-//W3C//DTD SVG 20010904//EN"
 "http://www.w3.org/TR/2001/REC-SVG-20010904/DTD/svg10.dtd">
<svg version="1.0" xmlns="http://www.w3.org/2000/svg"
 width="178.000000pt" height="178.000000pt" viewBox="0 0 178.000000 178.000000"
 preserveAspectRatio="xMidYMid meet">
<metadata>
Created by potrace 1.14, written by Peter Selinger 2001-2017
</metadata>
<g transform="translate(0.000000,178.000000) scale(0.100000,-0.100000)"
fill="#000000" stroke="none">
<path d="M621 1230 c-53 -13 -111 -60 -142 -115 -33 -59 -40 -90 -39 -165 0
-73 4 -91 35 -157 45 -100 138 -198 275 -292 71 -49 168 -106 150 -89 -3 3
-36 31 -75 63 -123 102 -277 276 -260 294 3 3 87 4 186 3 112 -2 186 1 194 8
9 7 15 0 24 -30 8 -28 17 -40 30 -40 14 0 20 12 27 53 l10 52 12 -79 c7 -43
15 -82 18 -87 15 -25 32 -3 48 66 l18 75 69 0 69 0 -19 -37 c-34 -66 -120
-160 -249 -272 -34 -30 -60 -56 -58 -59 3 -2 11 1 18 7 7 6 54 38 103 71 205
136 304 272 313 430 5 88 -7 138 -46 201 -83 130 -287 140 -400 19 l-19 -20
-27 25 c-68 63 -183 96 -265 75z m135 -105 c46 -19 72 -44 114 -107 36 -54 38
-56 54 -39 9 10 16 21 16 25 0 4 5 12 10 19 6 7 19 24 31 40 26 34 98 77 136
81 126 11 209 -115 179 -273 -12 -63 -17 -66 -102 -66 l-78 0 -9 -35 c-10 -41
-22 -57 -24 -32 -3 31 -23 177 -28 199 -4 18 -26 26 -39 12 -4 -4 -17 -102
-19 -141 -2 -26 -7 -22 -18 12 -13 37 -22 38 -48 2 -19 -27 -23 -28 -113 -29
-51 0 -130 -2 -174 -3 -45 -2 -86 0 -92 4 -13 8 -33 92 -34 142 -1 126 79 220
177 206 17 -2 44 -10 61 -17z"/>
<path d="M643 1104 c-48 -20 -83 -74 -90 -136 -6 -54 4 -63 13 -12 8 45 56
115 92 134 41 22 29 32 -15 14z"/>
</g>
</svg>
